<?xml version="1.0" standalone="no"?>
<!DOCTYPE svg PUBLIC "-//W3C//DTD SVG 20010904//EN"
 "http://www.w3.org/TR/2001/REC-SVG-20010904/DTD/svg10.dtd">
<svg version="1.0" xmlns="http://www.w3.org/2000/svg"
 width="385.000000pt" height="385.000000pt" viewBox="0 0 385.000000 385.000000"
 preserveAspectRatio="xMidYMid meet">

<g transform="translate(0.000000,385.000000) scale(0.100000,-0.100000)"
fill="#374151" stroke="none">
<path d="M2415 3690 c-66 -10 -127 -41 -179 -93 -97 -97 -114 -214 -56 -389
25 -75 29 -101 21 -116 -11 -21 -18 -108 -9 -117 2 -3 38 -17 79 -31 41 -14
94 -35 118 -45 24 -11 57 -19 75 -17 28 3 33 9 51 58 27 74 24 71 113 133 95
67 125 99 152 159 54 123 24 277 -73 370 -72 68 -188 103 -292 88z m113 -85
c112 -33 202 -144 202 -247 0 -87 -35 -143 -135 -216 -88 -64 -135 -128 -135
-183 0 -11 -2 -19 -4 -19 -8 0 -124 39 -164 55 -42 17 -42 18 -35 54 11 50 9
136 -4 163 -22 46 -43 131 -43 172 0 55 41 137 87 172 41 31 117 63 154 64 14
0 48 -7 77 -15z"/>
<path d="M2350 3308 c-30 -50 -30 -84 2 -111 21 -17 21 -19 5 -83 -17 -72 -15
-90 13 -97 23 -6 29 1 70 83 18 36 46 81 61 100 53 64 29 126 -31 81 -16 -11
-31 -21 -34 -21 -2 0 -7 18 -11 40 -6 34 -11 40 -31 40 -17 0 -31 -10 -44 -32z"/>
<path d="M1706 3617 c-30 -39 -32 -66 -11 -107 26 -50 106 -86 141 -62 32 21
43 85 22 125 -46 81 -110 99 -152 44z"/>
<path d="M1290 3511 c-12 -24 -4 -49 27 -78 28 -26 68 -30 77 -7 6 17 -14 63
-39 88 -22 22 -52 20 -65 -3z"/>
<path d="M905 3361 c-99 -25 -195 -121 -195 -193 0 -57 25 -57 84 1 102 99
168 124 214 81 29 -27 28 -38 -9 -122 -78 -178 -79 -283 -4 -332 19 -13 51
-18 118 -19 l92 -2 55 -109 c64 -127 99 -173 147 -193 93 -39 140 38 49 81
-43 20 -63 48 -106 151 -68 158 -86 175 -197 175 -37 0 -79 3 -91 7 -23 5 -24
9 -17 60 4 30 20 86 37 126 58 141 54 208 -15 261 -38 29 -109 41 -162 27z"/>
<path d="M1617 3256 c-9 -9 -17 -48 -22 -101 -8 -94 -11 -99 -81 -108 -57 -7
-114 -35 -114 -57 0 -15 29 -37 171 -130 4 -3 1 -38 -7 -79 -21 -102 -17 -125
23 -129 26 -3 39 5 76 40 24 24 51 53 59 66 l16 24 76 -22 c141 -39 164 -15
106 117 -31 70 -32 74 -17 105 75 161 63 193 -57 157 -37 -11 -69 -19 -70 -17
-60 89 -115 148 -137 148 -4 0 -14 -7 -22 -14z m92 -204 c17 -34 33 -38 77
-22 38 15 41 6 10 -30 -31 -38 -31 -40 -6 -90 28 -55 26 -58 -22 -49 -46 9
-43 11 -95 -57 l-23 -29 1 55 c0 30 0 60 0 66 -1 5 -23 18 -51 28 -27 10 -50
22 -50 26 0 5 19 11 43 15 55 9 67 20 67 60 0 70 22 82 49 27z"/>
<path d="M2995 3013 c-77 -17 -203 -120 -244 -201 -25 -49 -27 -70 -6 -78 15
-6 40 12 141 105 34 31 83 68 109 81 26 13 54 35 63 48 15 23 14 25 -3 38 -19
14 -25 15 -60 7z"/>
<path d="M2182 2898 c-18 -18 -14 -49 12 -93 19 -30 22 -44 14 -58 -5 -10 -7
-30 -3 -44 6 -25 8 -25 62 -20 42 4 62 12 77 30 12 13 33 31 48 40 36 22 45
54 22 78 -20 19 -173 79 -203 79 -9 0 -22 -5 -29 -12z"/>
<path d="M811 2582 c-5 -10 -6 -24 0 -34 13 -23 110 -59 166 -61 42 -2 48 1
51 19 4 29 -35 59 -103 78 -69 21 -102 20 -114 -2z"/>
<path d="M2511 2495 c-80 -32 -183 -104 -211 -150 -60 -97 43 -205 164 -174
76 19 138 94 173 211 17 58 10 102 -20 123 -27 19 -29 19 -106 -10z m10 -147
c-29 -57 -42 -72 -68 -86 -29 -16 -54 -15 -77 3 -18 13 -18 16 -3 39 16 24
155 101 165 91 3 -3 -5 -24 -17 -47z"/>
<path d="M1873 2478 c-16 -17 -51 -58 -79 -90 -57 -64 -89 -121 -80 -144 10
-27 48 -6 113 63 42 45 64 62 67 52 3 -8 12 -53 20 -101 8 -48 20 -96 26 -108
13 -24 45 -27 54 -4 17 44 -8 274 -35 325 -25 49 -49 50 -86 7z"/>
<path d="M1196 2319 c-79 -94 -104 -168 -120 -359 -10 -120 -18 -165 -35 -197
-24 -47 -103 -154 -158 -213 -55 -61 -82 -101 -89 -137 -6 -28 -2 -37 28 -67
23 -23 48 -37 74 -41 21 -3 55 -10 74 -14 39 -8 37 0 24 -123 -7 -66 -6 -67
25 -96 28 -25 30 -30 16 -42 -24 -20 -19 -73 11 -101 25 -22 26 -28 21 -91 -7
-80 4 -126 40 -169 58 -68 169 -86 336 -54 124 24 134 22 186 -33 53 -55 83
-129 126 -307 9 -38 21 -78 27 -88 21 -40 88 -38 88 2 0 63 -91 352 -134 425
-65 111 -133 127 -336 83 -125 -28 -179 -21 -225 29 -23 24 -25 35 -25 114 0
74 -3 91 -21 114 -18 23 -20 31 -10 52 20 45 14 81 -20 106 -33 25 -32 19 -8
125 20 91 -3 121 -111 143 -115 23 -104 17 -84 48 10 15 22 32 28 38 42 43 85
94 106 124 13 19 29 40 35 46 24 24 76 143 85 193 5 29 10 91 10 136 0 45 7
105 16 136 18 60 63 149 75 149 18 0 380 -186 491 -251 188 -112 241 -133 323
-133 43 1 120 13 197 33 217 53 443 77 466 49 17 -22 32 -116 32 -206 0 -145
-42 -267 -153 -446 -83 -135 -97 -166 -117 -268 -14 -73 6 -236 40 -323 4 -11
18 -47 31 -80 45 -118 127 -273 148 -280 25 -8 61 14 61 37 0 9 -12 39 -28 65
-111 192 -166 361 -166 513 -1 90 1 99 36 170 21 41 43 84 50 95 7 11 26 39
41 63 75 114 136 297 141 421 5 145 -24 284 -67 319 -45 37 -323 12 -579 -54
-141 -36 -183 -31 -289 31 -46 26 -97 55 -113 65 -17 9 -54 31 -83 48 -93 55
-453 232 -472 232 -11 0 -31 -14 -45 -31z"/>
</g>
</svg>
